Coordinates
version=1
nRows=15
nColumns=42
inDegrees=yes

Units are S.I. units (second, meters, Newtons, ...)
If the header above contains a line with 'inDegrees', this indicates whether rotational values are in degrees (yes) or radians (no).

endheader
time	pelvis_tilt	pelvis_list	pelvis_rotation	pelvis_tx	pelvis_ty	pelvis_tz	hip_flexion_r	hip_adduction_r	hip_rotation_r	knee_angle_r	knee_adduction_r	knee_angle_r_beta	ankle_angle_r	subtalar_angle_r	mtp_angle_r	hip_flexion_l	hip_adduction_l	hip_rotation_l	knee_angle_l	knee_adduction_l	knee_angle_l_beta	ankle_angle_l	subtalar_angle_l	mtp_angle_l	lumbar_extension	lumbar_bending	lumbar_rotation	arm_flex_r	arm_add_r	arm_rot_r	elbow_flex_r	pro_sup_r	wrist_flex_r	wrist_dev_r	arm_flex_l	arm_add_l	arm_rot_l	elbow_flex_l	pro_sup_l	wrist_flex_l	wrist_dev_l
      0.50000000	      0.87595698	      4.26519230	     11.18333273	     -0.06121818	      0.89202508	      0.37885332	     19.90489095	    -17.91934204	    -18.11314272	     62.46050082	      3.06747001	      1.09014139	      9.04062395	     -7.79678153	     -9.41862189	      4.35256103	     -1.16154642	     -4.01865724	      1.67877364	      5.51347377	      0.02930013	      5.63670436	     32.41252777	     -9.41862189	    -16.55908024	     -6.54500099	     -2.36423566	     -9.51075520	    -21.57247278	    -21.09104391	     96.42974610	     90.00000001	      0.00000000	      0.00000000	     -0.72966189	    -25.06491473	     15.28577090	     88.00261499	     90.00000001	      0.00000000	      0.00000000
      0.51000000	      0.54152792	      4.32615851	     11.21952678	     -0.05864260	      0.89171632	      0.37946319	     21.14499204	    -18.03318839	    -18.12182420	     59.91980430	      2.87529093	      1.04579787	     10.37065268	     -7.84946319	     -9.37642305	      4.49814829	     -1.14077835	     -4.03325323	      1.62483410	      5.55852579	      0.02835870	      5.72434298	     32.40431210	     -9.37642305	    -16.59831302	     -6.43770269	     -2.38785446	     -9.53660698	    -20.93273188	    -21.02375197	     94.53064056	     90.00000001	      0.00000000	      0.00000000	      0.06378886	    -25.60168326	     15.62504535	     87.54331595	     90.00000001	      0.00000000	      0.00000000
      0.52000000	      0.22067015	      4.33603764	     11.24161345	     -0.05588758	      0.89142047	      0.38015872	     22.11952618	    -17.94483254	    -18.08960778	     56.84804783	      2.76384492	      0.99218561	     11.49107193	     -7.51282204	     -9.33237304	      4.64877942	     -1.19022410	     -4.08047445	      1.62973641	      5.63745555	      0.02844427	      5.85881482	     32.40998999	     -9.33237304	    -16.58330009	     -6.26196654	     -2.31459469	     -9.54050030	    -20.32543455	    -20.90732385	     92.57785497	     90.00000001	      0.00000000	      0.00000000	      0.89251753	    -26.09536109	     16.06154806	     87.08368005	     90.00000001	      0.00000000	      0.00000000
      0.53000000	     -0.18289032	      4.53225205	     11.23340871	     -0.05285596	      0.89089387	      0.38092928	     22.95937460	    -18.01751580	    -18.03263350	     53.47912234	      2.72180508	      0.93338677	     11.97996212	     -7.00938007	     -9.30225371	      4.85562427	     -1.04528475	     -4.23163912	      1.69996927	      5.72655310	      0.02967006	      6.03719137	     32.29602920	     -9.30225371	    -16.46991645	     -6.31805297	     -2.22720471	     -9.71787283	    -19.78477882	    -20.68744448	     90.99176795	     90.00000001	      0.00000000	      0.00000000	      1.55186760	    -26.54127428	     16.28127926	     86.83463693	     90.00000001	      0.00000000	      0.00000000
      0.54000000	      0.40049757	      4.12068811	     11.28433394	     -0.04910642	      0.89190332	      0.38234033	     22.11319133	    -16.88066256	    -19.32511452	     49.11360850	      1.88687971	      0.85719418	     13.03118475	     -4.47386264	     -9.14441630	      4.01707030	     -2.06514585	     -4.59848623	      1.64597179	      6.29665596	      0.02872763	      6.26570777	     33.32636083	     -9.14441630	    -17.23638046	     -5.55371940	     -1.98948286	     -9.44462467	    -19.32101001	    -20.45227247	     88.72151581	     90.00000001	      0.00000000	      0.00000000	      2.54891486	    -26.91219614	     16.87284179	     86.25227776	     90.00000001	      0.00000000	      0.00000000
      0.55000000	     -0.08561719	      4.32888198	     11.30106155	     -0.04594678	      0.89117373	      0.38342181	     22.61300384	    -16.76660475	    -18.85214239	     45.39404434	      2.17590457	      0.79227553	     12.97518996	     -3.62788314	     -9.10905056	      4.29548090	     -1.82367952	     -4.44708586	      1.65766744	      6.20581299	      0.02893175	      6.48689008	     33.15690524	     -9.10905056	    -16.93967084	     -5.68215811	     -1.87999114	     -9.33037116	    -18.86529434	    -20.05748982	     86.68734760	     90.00000001	      0.00000000	      0.00000000	      3.20525837	    -27.33403965	     17.13254623	     86.03157519	     90.00000001	      0.00000000	      0.00000000
      0.56000000	      0.10773752	      4.27620405	     11.42376419	     -0.04219527	      0.89143278	      0.38476960	     21.88620860	    -16.08142510	    -19.05545036	     41.23076937	      2.18391716	      0.71961268	     12.77006240	     -2.36756313	     -9.03759634	      3.82400869	     -2.23299237	     -4.36799556	      1.61166946	      6.53238316	      0.02812894	      6.77028471	     33.16193907	     -9.03759634	    -17.28175854	     -5.37665740	     -1.80800580	     -9.10203379	    -18.50692381	    -19.48289722	     84.71266032	     90.00000001	      0.00000000	      0.00000000	      3.90389966	    -27.65345957	     17.32767706	     85.82504338	     90.00000001	      0.00000000	      0.00000000
      0.57000000	     -0.42967735	      4.65714129	     11.59810211	     -0.03881446	      0.89048999	      0.38586425	     22.12765985	    -16.12992391	    -18.60265893	     37.88674512	      2.40649460	      0.66124845	     12.19970823	     -1.36667676	     -9.01244468	      4.16812197	     -1.70360316	     -4.15522033	      1.69774329	      6.23700877	      0.02963121	      6.93254593	     33.07100979	     -9.01244468	    -16.88723109	     -5.68895888	     -1.83775916	     -8.96862970	    -18.06187946	    -19.00172715	     82.94890723	     90.00000001	      0.00000000	      0.00000000	      4.48956535	    -28.07199953	     17.52254135	     85.80656760	     90.00000001	      0.00000000	      0.00000000
      0.58000000	     -0.10306300	      4.69720857	     12.01101971	     -0.03477217	      0.89089114	      0.38704749	     20.93101684	    -15.62565287	    -19.00149446	     34.36009238	      2.45461339	      0.59969674	     11.66749513	     -0.00561492	     -8.93041164	      3.54730512	     -2.02089356	     -3.70739780	      1.62690091	      6.54360638	      0.02839478	      7.23226022	     33.15337472	     -8.93041164	    -17.30979548	     -5.41327421	     -2.01291799	     -8.64487093	    -17.81333145	    -18.24565859	     80.89432829	     90.00000001	      0.00000000	      0.00000000	      5.13660610	    -28.32999463	     17.56880953	     85.75759778	     90.00000001	      0.00000000	      0.00000000
      0.59000000	     -0.15431535	      4.95774175	     12.50231514	     -0.03100672	      0.89075242	      0.38810091	     20.27009864	    -15.50921426	    -19.08287584	     31.62461495	      2.55081841	      0.55195366	     11.14013431	      0.93952057	     -8.87091008	      3.39083667	     -1.79631549	     -3.16439281	      1.68440467	      6.41007024	      0.02939841	      7.49134029	     33.08084432	     -8.87091008	    -17.36112986	     -5.44113998	     -2.30684370	     -8.36596483	    -17.50812445	    -17.53428988	     79.09078408	     90.00000001	      0.00000000	      0.00000000	      5.72327250	    -28.63488897	     17.65176519	     85.82305609	     90.00000001	      0.00000000	      0.00000000
      0.60000000	     -0.49421542	      5.32913887	     12.98843603	     -0.02734748	      0.89023506	      0.38914588	     20.07414536	    -15.63507310	    -18.91821155	     29.67896999	      2.64831300	      0.51799574	     10.71551262	      1.59505582	     -8.85126577	      3.57351544	     -1.30452670	     -2.69495692	      1.84472537	      6.12126111	      0.03219653	      7.65678219	     33.06423387	     -8.85126577	    -17.08984721	     -5.66195934	     -2.53586769	     -8.18689076	    -17.15014018	    -17.01206621	     77.49744058	     90.00000001	      0.00000000	      0.00000000	      6.31773688	    -28.91412024	     17.83319227	     85.89939439	     90.00000001	      0.00000000	      0.00000000
      0.61000000	     -0.45988590	      5.52841991	     13.72150306	     -0.02357958	      0.89041316	      0.39013234	     19.30165132	    -15.61171373	    -19.24266005	     28.11691878	      2.73074444	      0.49073281	     10.44018720	      2.11606095	     -8.82556993	      3.41532877	     -1.13028982	     -1.86746325	      2.00114315	      5.93167965	      0.03492654	      7.94680508	     32.98804611	     -8.82556993	    -17.19568187	     -5.57244278	     -2.99906019	     -7.88299363	    -16.88395624	    -16.32026589	     75.71883701	     90.00000001	      0.00000000	      0.00000000	      6.93267087	    -29.11975795	     17.89672100	     86.01000312	     90.00000001	      0.00000000	      0.00000000
      0.62000000	     -0.24047573	      5.64772892	     14.51858202	     -0.01964476	      0.89098426	      0.39114873	     18.31514134	    -15.48539441	    -20.07922509	     26.98776606	      2.60454963	      0.47102538	     10.35965277	      2.64825086	     -8.78373683	      3.06553049	     -1.12130013	     -0.99466016	      2.13922110	      5.81047554	      0.03733645	      8.25756986	     32.67134540	     -8.78373683	    -17.45961250	     -5.32736409	     -3.52981979	     -7.60770009	    -16.64685873	    -15.63021706	     74.37611036	     90.00000001	      0.00000000	      0.00000000	      7.44167408	    -29.19932198	     17.73483519	     86.20661719	     90.00000001	      0.00000000	      0.00000000
      0.63000000	     -0.33848597	      5.83964599	     15.11048793	     -0.01579075	      0.89116536	      0.39244333	     17.92773830	    -15.47344093	    -20.25454910	     26.50929168	      2.49544713	      0.46267442	     10.50617641	      2.79536660	     -8.76946645	      3.10732781	     -0.86246494	     -0.47471143	      2.46780838	      5.47683283	      0.04307138	      8.36298922	     32.60695300	     -8.76946645	    -17.36976654	     -5.32849764	     -3.73788419	     -7.56372881	    -16.39213340	    -15.27702505	     73.09753304	     90.00000001	      0.00000000	      0.00000000	      8.05931031	    -29.21747709	     17.77750377	     86.32320543	     90.00000001	      0.00000000	      0.00000000
      0.64000000	     -0.16971016	      5.83398485	     15.98006844	     -0.01190993	      0.89191175	      0.39354313	     17.07838764	    -15.37393591	    -21.15491639	     26.18576342	      2.47519721	      0.45702779	     10.69298283	      3.18422356	     -8.72082119	      2.96381069	     -0.93058785	      0.48296161	      2.81385644	      5.27220157	      0.04911106	      8.77735428	     32.16034410	     -8.72082119	    -17.52519040	     -4.96763729	     -4.31068519	     -7.33164333	    -16.15482939	    -14.70850748	     71.87559469	     90.00000001	      0.00000000	      0.00000000	      8.45570155	    -29.17530062	     17.56802582	     86.55307629	     90.00000001	      0.00000000	      0.00000000
